<svg xmlns="http://www.w3.org/2000/svg" width="231" height="50"><g fill-rule="evenodd"><path fill="#00354f" d="M95.508 37.2H82.374c-.001-3.233-.001-6.465 0-9.698h10.024c.291 0 .568-.113.774-.318.205-.206.322-.483.322-.771-.001-.829-.001-1.658 0-2.487 0-.603-.494-1.093-1.1-1.093H82.371c-.001-2.583-.001-5.166 0-7.748 4.222-.001 8.446-.001 12.671 0a1.1 1.1 0 0 0 .774-.319c.206-.202.322-.483.322-.771-.001-.83-.001-1.66 0-2.49 0-.603-.493-1.093-1.099-1.093H77.417c-.001 10.486-.001 20.971 0 31.458 6.03-.001 12.06-.001 18.091 0 .291 0 .569-.113.774-.319.206-.206.322-.483.322-.774-.001-.83-.001-1.659 0-2.487.004-.6-.493-1.09-1.096-1.09ZM122.567 10.412c-6.831 0-13.66.011-20.489 0 0 .001.001.002.004.003-.61 0-1.1.49-1.1 1.093-.001.829-.001 1.658 0 2.487 0 .288.117.569.322.774.206.206.483.319.774.319h7.752c-.001 8.566-.001 17.132 0 25.699 0 .288.117.569.323.774.205.206.483.319.774.319.921-.001 1.844-.001 2.768 0 .291 0 .568-.113.774-.319.205-.205.322-.483.322-.774-.001-8.568-.001-17.135 0-25.702 2.59-.001 5.18-.001 7.773 0a1.1 1.1 0 0 0 .774-.319c.205-.202.322-.483.322-.771-.002-.83-.002-1.66 0-2.49.007-.603-.487-1.093-1.093-1.093Z"/><path d="M77.404 10.412h.013c-.001-.001-.001-.002 0-.003-.005.001-.01.002-.013.003Z"/><path fill="#00354f" d="M67.884 25.046c-1.326-.658-2.65-1.315-3.974-1.973-1.322-.613-2.449-1.315-3.398-2.151-.925-.812-1.388-1.823-1.388-2.963 0-.946.319-1.758.919-2.415.599-.658 1.411-.987 2.404-.987 1.627 0 3.011.853 4.152 2.549.332.493 1.018.606 1.514.281.722-.472 1.445-.944 2.169-1.415.243-.161.411-.408.472-.696.062-.284.004-.579-.157-.822-1.96-2.912-4.68-4.378-8.146-4.378-2.316 0-4.282.778-5.892 2.357-1.59 1.559-2.385 3.546-2.385 5.902 0 1.515.333 2.854.994 4.015.661 1.162 1.48 2.062 2.47 2.696 1.088.621 2.178 1.242 3.268 1.864 1.08.534 2.162 1.068 3.244 1.603 2.007.898 3.487 2.391 3.487 4.32 0 1.384-.462 2.521-1.367 3.401-.904.877-2.052 1.316-3.463 1.316-2.782 0-4.768-1.771-5.978-5.317-.229-.661-1.027-.931-1.623-.558-.723.456-1.445.913-2.166 1.37-.411.26-.602.764-.465 1.233.62 2.241 1.767 4.094 3.405 5.533 1.829 1.6 4.104 2.411 6.817 2.411 2.891 0 5.275-.876 7.104-2.63 1.854-1.775 2.782-4.08 2.782-6.934 0-1.798-.466-3.333-1.415-4.628-.938-1.281-2.062-2.282-3.384-2.984ZM225.37 37.8c2.826-2.744 4.238-6.629 4.238-11.654 0-5.026-1.408-8.91-4.234-11.63-2.826-2.741-6.269-4.101-10.329-4.101-2.732 0-5.462.001-8.19 0-.61 0-1.1.49-1.1 1.093-.002 9.76-.003 19.519 0 29.279 0 .288.117.569.322.774.206.206.483.319.774.319h8.191c4.083 0 7.526-1.36 10.328-4.08m-4.234-20.41c2.141 1.6 3.398 4.628 3.398 8.776 0 4.125-1.257 7.129-3.398 8.756-2.141 1.624-4.59 2.282-7.526 2.282-.966-.001-1.93 0-2.891 0-.003-7.374-.003-14.747 0-22.119.961-.001 1.925-.001 2.891 0 2.936 0 5.385.702 7.526 2.305ZM150.161 10.412h-2.768c-.607 0-1.1.49-1.1 1.093-.002 6.424-.002 12.848 0 19.272 0 4.324-2.207 6.693-6.44 6.78-4.356.089-6.824-2.331-6.852-6.78-.043-6.425.391-12.845.453-19.269.005-.603-.494-1.093-1.1-1.093-.924 0-1.847-.003-2.768 0 0-.001.001-.002.004-.003-.61.006-1.1.49-1.1 1.093-.002 6.35-.002 12.7 0 19.05 0 3.662 1.058 6.515 3.179 8.577 2.117 2.063 4.858 3.094 8.187 3.094 3.351 0 6.091-1.028 8.208-3.073 2.138-2.042 3.2-4.916 3.2-8.602-.002-6.349-.002-12.698 0-19.046 0-.603-.494-1.093-1.103-1.093ZM191.754 10.412h-4.699c-3.424 9.797-6.844 19.594-10.264 29.392-.164.479-.089 1.007.206 1.418.294.411.771.654 1.278.654h2.867c2.756-8.403 5.513-16.806 8.273-25.209 2.748 8.403 5.499 16.806 8.252 25.209h2.867c.507.004.984-.239 1.278-.654.295-.414.374-.939.206-1.418-3.423-9.798-6.845-19.595-10.264-29.392ZM175.733 26.427c1.743-1.73 2.607-3.97 2.607-6.69 0-2.744-.86-4.981-2.604-6.715-1.72-1.733-4.124-2.61-7.194-2.61H157.2c-.002 10.123-.001 20.245 0 30.368.004.606.494 1.093 1.1 1.093h2.768c.291 0 .568-.113.774-.319.205-.205.322-.483.322-.77-.002-3.923-.002-7.845 0-11.767 2.123-.001 4.248-.001 6.375 0 3.066 0 5.447-.86 7.194-2.59m-6.971-11.346c2.822 0 4.522 1.689 4.522 4.652.003 2.908-1.696 4.611-4.522 4.611h-6.598c-.002-3.088-.002-6.175 0-9.263h6.598Z"/><path fill="#21b5c4" d="M28.722 8.682c-1.842 4.801-3.684 9.603-5.525 14.405 2.849 7.433 5.699 14.867 8.55 22.301 2.336-.001 4.672-.001 7.009 0a.0285.0285 0 0 1 .013 0c2.008 0 3.464-1.902 2.929-3.827-4.326-10.96-8.651-21.919-12.976-32.879Z"/><path fill="#00354f" d="M26.941 4.612H15.972c-4.86 12.317-9.72 24.633-14.58 36.949-.538 1.925.918 3.827 2.929 3.827 2.326-.001 4.652-.001 6.978 0 .01-.001.021-.001.031 0 3.404-8.873 6.808-17.745 10.212-26.617 1.809-4.719 3.619-9.437 5.43-14.155h-.031c-.001-.001-.001-.002 0-.004Z"/></g></svg>